<svg width="416" height="230" fill="none" xmlns="http://www.w3.org/2000/svg"><path fill-rule="evenodd" clip-rule="evenodd" d="M17.83.562c-4.414 1.477-6.79 10.117-6.828 24.827-.065 25.674 10.753 40.688 34.476 47.845 10.14 3.058 10.411 3.39 5.246 6.418-5.286 3.098-9.849 8.018-15.246 16.438l-4 6.242-6.73.008-6.729.009-1.899-3.75c-1.044-2.062-2.228-5.325-2.63-7.25-.405-1.925-1.429-4.287-2.278-5.25-2.105-2.386-6.782-2.202-9.35.366-2.792 2.792-2.198 9.898 1.41 16.85 1.65 3.184 2.21 5.223 1.542 5.635C2.828 110.178.022 117.865 0 122.139c-.024 4.76 2.546 10.574 6.131 13.865 3.31 3.04 14.096 8.778 22.347 11.89 13.808 5.207 22.581 6.657 42.247 6.985l18.247.305 5.594 4.985c3.076 2.742 9.165 6.942 13.53 9.333 4.366 2.391 8.556 4.797 9.313 5.347 1.153.838.815 4.857-2.085 24.838-4.403 30.33-4.71 29.662 13.63 29.662 12.166 0 12.744-.386 20.113-13.445 4.459-7.902 6.596-10.858 7.017-9.708.333.909 1.179 5.388 1.88 9.953 1.909 12.437 2.259 12.7 16.898 12.7 15.8 0 15.173.643 19.248-19.713l3.135-15.66 30.117.576c27.72.531 43.59-.221 49.076-2.326 2.517-.966 4.54 8.681 4.54 21.65 0 15.725-.419 15.365 18.352 15.805 19.107.447 20.216.052 25.419-9.066 9.275-16.252 15.854-33.291 19.245-49.846 1.031-5.028 2.011-9.256 2.179-9.394.168-.139 4.58-1.449 9.805-2.913 25.94-7.267 48.445-23.727 57.867-42.323 4.355-8.596 2.277-11.709-8.871-13.291-25.862-3.667-58.183-17.622-103.445-44.663-14.986-8.953-29.193-15.027-42.051-17.977-11.6-2.661-32.181-2.417-43 .51-9.433 2.554-26.059 10.455-32.69 15.537-5.374 4.118-6.433 4.357-7.295 1.643-1.421-4.48-10.627-16.966-16.624-22.55-11.765-10.953-26.191-16.5-42.916-16.5-10.12 0-13.975 1.923-13.975 6.968 0 4.488-3.652 15.097-7.028 20.418l-3.099 4.884-3.186-3.026c-6.61-6.28-14.547-8.931-30.646-10.24-12.645-1.027-17.015-2.604-22.733-8.202-4.902-4.8-7.913-11.201-8.86-18.842-1.09-8.787-3.91-11.651-9.597-9.746zm115.899 33.89c15.231 5.022 28.256 19.905 34.917 39.897 2.808 8.428 2.617 28.8-.329 35.176-4.778 10.339-14.074 17.211-28.056 20.74-7.917 1.998-10.46 4.836-8.732 9.748 1.497 4.257 5.097 5.047 13.645 2.996 26.678-6.403 41.127-26.264 39.404-54.16-.34-5.5-.881-11.183-1.202-12.63-.512-2.3.207-3.27 5.759-7.765 24.346-19.714 58.051-22.662 89.12-7.793 5.073 2.428 15.748 8.327 23.723 13.11 32.301 19.37 71.413 36.713 90.5 40.126 5.777 1.032 5.858 1.212 2.482 5.474-7.402 9.346-23.989 19.777-38.784 24.39-4.566 1.423-8.661 2.588-9.101 2.588-.44 0-1.067-3.712-1.393-8.25-.683-9.514-3.942-20.988-6.762-23.808-2.367-2.367-5.717-2.489-8.813-.32-2.693 1.887-2.611 4.749.441 15.378 2.406 8.38 2.424 28.152.034 38.915-2.612 11.767-7.08 24.073-13.091 36.059l-5.568 11.103-8.723-.288-8.722-.289-.585-10.5c-.322-5.775-1.275-12.302-2.119-14.504-.844-2.203-6.457-11.472-12.474-20.598-11.826-17.937-14.867-24.942-15.908-36.648-.401-4.503-.071-9.246.992-14.25 1.997-9.406 1.99-10.905-.061-13.171-2.114-2.336-7.54-2.38-9.606-.079-4.434 4.941-6.278 27.868-3.2 39.79 2.088 8.091 6.235 16.734 12.444 25.935 2.853 4.228 4.888 7.989 4.521 8.356-.937.939-48.07 1.46-59.211.655l-9.207-.666.569-2.844c.437-2.188-.023-3.435-1.998-5.41-3.166-3.166-6.051-3.263-9.012-.302-1.793 1.793-2.944 5.693-5.537 18.75-5.786 29.138-4.749 26.142-8.921 25.791l-3.623-.305-4.322-25.965c-2.926-17.583-4.843-26.542-5.937-27.75-2.027-2.241-7.068-2.31-9.476-.13-1.237 1.12-1.829 3.061-1.829 6 0 2.39-.22 4.345-.488 4.345s-4.881-1.404-10.25-3.12c-12.263-3.92-24.021-9.678-32.55-15.941l-6.611-4.854 3.162-6.13c4.295-8.329 4.481-15.262.489-18.271-2.185-1.647-3.291-1.878-5.396-1.128-3.063 1.091-3.926 2.394-5.332 8.043-.56 2.254-2.055 5.629-3.319 7.5l-2.3 3.401-17.452-.099c-15.33-.088-18.615-.409-27.012-2.644-11.64-3.099-27.684-10.889-28.836-14.002-.933-2.522-.362-5.462 1.266-6.521.621-.404 6.065-.959 12.098-1.234l10.97-.5 7.6-10.984c6.497-9.391 8.366-11.384 12.894-13.75 3.744-1.956 6.772-2.766 10.34-2.766 4.383 0 5.746-.543 10.423-4.151 2.96-2.283 8.77-7.754 12.911-12.156 11.484-12.207 18.165-22.858 21.99-35.055l1.839-5.862 5.532.633c3.043.348 8.345 1.56 11.783 2.694zm-92.25 13.72c3.3 1.105 10.274 2.306 15.5 2.67 12.666.884 18.737 2.68 23.547 6.97l3.952 3.525-5.204 4.9-5.204 4.9-7.39-3.873c-4.064-2.13-11.623-5.252-16.796-6.94-5.173-1.686-11.057-4.207-13.076-5.601-3.878-2.68-8.038-8.06-9.739-12.597l-1.02-2.723 4.714 3.382c2.593 1.86 7.415 4.285 10.715 5.388zm22.884 52.942c-2.336 1.539-2.55 5.07-.436 7.184 2.581 2.581 4.507 2.595 7.051.051 2.408-2.408 2.447-2.917.443-5.777-1.537-2.195-4.889-2.887-7.058-1.458zm81.365 83.367c2.338.608 4.25 1.359 4.25 1.669 0 .31-3.646 7.006-8.103 14.881-7.937 14.024-8.173 14.318-11.5 14.318-1.868 0-3.397-.2-3.397-.445 0-.699 3.901-27.687 4.517-31.247l.552-3.192 4.715 1.456c2.594.8 6.628 1.952 8.966 2.56z" fill="#fff"/></svg>