<svg width="429" height="284" fill="none" xmlns="http://www.w3.org/2000/svg"><path fill-rule="evenodd" clip-rule="evenodd" d="M80.652 1.89c-3.92 1.027-9.77 3.208-13 4.845C61.339 9.934 13.937 43.97 8.486 49.217c-10.814 10.41-11.331 26.918-1.327 42.38 5.346 8.264 11.888 11.78 21.975 11.811l7.355.022 1.863 3.632c4.743 9.244 14.272 14.824 25.344 14.839 6.519.009 8.208-.54 29.379-9.561 12.354-5.264 22.8-9.202 23.213-8.75.683.747 6.991 21.224 6.991 22.695 0 .344-4.193.626-9.318.626-12.032 0-18.563 1.927-24.227 7.148-7.164 6.604-8.926 11.4-8.941 24.352-.012 9.754.247 11.419 2.286 14.7 3.305 5.315 8.51 8.229 14.7 8.229 8.765 0 15.338-5.781 16.97-14.927.393-2.198 1.235-4.329 1.872-4.734.637-.406 6.35-.744 12.696-.753l11.538-.015 3.755 4.491c5.298 6.339 15.859 14.619 24.776 19.427l7.607 4.102.656 7.74c1.269 14.969 5.496 25.649 13.703 34.63 2.71 2.965 4.927 5.846 4.927 6.403 0 .91-3.567 2.168-18 6.348-6.74 1.953-13.445 9.045-14.882 15.742-1.637 7.636-1.382 11.512.955 14.482 1.946 2.474 2.586 2.635 10.5 2.635 6.824 0 8.427.285 8.427 1.5 0 .825.9 2.4 2 3.5 1.928 1.928 3.333 2 38.886 2h36.886l5.226-2.75c3.143-1.654 6.478-4.482 8.364-7.095 2.996-4.148 3.154-4.846 3.482-15.442l.343-11.097 6.967-7.558c12.29-13.334 22.057-29.106 27.884-45.029l2.734-7.472 10.364-3.102c31.468-9.421 60.659-26.065 80.484-45.891 9.871-9.871 11.634-12.183 15.707-20.592 4.879-10.072 7.225-20.263 5.849-25.407-.431-1.611-1.984-3.826-3.451-4.921-3.314-2.474-4.888-1.841-13.225 5.32-13.595 11.678-31.654 17.3-48.596 15.13-10.414-1.334-17.981-3.739-32.207-10.235-22.527-10.286-32.73-12.73-68.307-16.356-28.859-2.941-38.645-4.642-50.39-8.756-24.3-8.511-44.747-23.492-61.043-44.723-10.888-14.184-22.348-21.956-38.367-26.018C102.831-.63 90.298-.64 80.652 1.89zm30.695 13.616c12.421 3.649 20.076 9.326 30.523 22.639 18.611 23.716 42.193 39.977 71.324 49.179 10.31 3.257 20.726 4.903 48.085 7.597 33.559 3.304 42.882 5.627 67.659 16.857 15.262 6.918 24.28 9.203 38.872 9.852 14.13.627 24.263-1.386 35.952-7.145 3.841-1.892 7.106-3.319 7.255-3.17.148.149-1.931 3.405-4.62 7.235-9.481 13.5-27.553 27.673-49.518 38.833-10.887 5.532-28.765 12.833-34.225 13.977l-3.125.655-.423-14.92c-.491-17.272-1.52-20.195-7.1-20.169-6.49.031-7.803 2.789-6.659 13.985 2.874 28.124-9.084 58.389-32.321 81.801l-7.247 7.302-.5 12.427c-.48 11.94-.609 12.536-3.271 15.198l-2.771 2.772-29.581.306c-34.857.361-36.504-.306-14.655-5.93 17.558-4.519 20.485-6.424 22.312-14.528 1.135-5.03-.451-9.364-5.938-16.228-10.94-13.686-15.221-22.811-17.765-37.869-1.39-8.229-1.465-11.243-.485-19.597 1.341-11.43 5.514-24.69 11.115-35.322 2.289-4.345 3.68-8.16 3.332-9.144-2.107-5.958-8.76-7.149-12.284-2.2-6.018 8.451-13.169 28.541-15.117 42.472l-1.218 8.701-3.587-.661c-8.934-1.648-24.186-9.312-31.587-15.871-3.168-2.808-3.6-3.554-2.079-3.587 5.057-.11 7.582-7.919 3.697-11.435-1.689-1.529-4.529-1.673-27.75-1.405-25.25.291-25.946.354-29.133 2.627-3.691 2.632-6.322 7.062-7.164 12.062-.701 4.163-3.207 6.071-5.487 4.179-1.166-.968-1.584-3.14-1.584-8.225 0-8.463 1.84-13.168 6.19-15.819 3.014-1.838 5.017-2.019 22.425-2.022 17.821-.004 19.294-.144 21.75-2.077 4.951-3.894 2.055-11.922-4.304-11.931-2.459-.003-2.78-.744-8.057-18.621-4.283-14.506-6.024-19.032-7.885-20.496-1.314-1.034-2.811-1.88-3.326-1.88-.516 0-13.023 5.176-27.793 11.5-14.77 6.326-28.027 11.501-29.46 11.501-5.92 0-14.54-6.429-14.54-10.842 0-1.211 7.4-5.362 26.159-14.673 14.387-7.142 27.437-14.038 29-15.324 3.736-3.076 3.821-7.245.206-10.088-1.449-1.14-3.252-2.073-4.006-2.073-.754 0-16.665 7.65-35.36 17-23.823 11.916-34.996 17-37.358 17-4.701 0-8.372-3.252-11.762-10.42-3.466-7.325-3.596-10.752-.63-16.561 1.926-3.77 5.94-7.085 27.815-22.962 25.995-18.871 31.615-22.343 39.823-24.606 6.686-1.844 21.675-1.767 28.181.144zM67.507 47.15c-4.355 2.08-4.151 10.078.3 11.77 4.372 1.663 9.472-1.747 9.472-6.333 0-2.018-3.094-5.4-5.5-6.013-1.1-.28-3.022-.021-4.272.576zm130.207 147.735c1.686.641 2.565 1.733 2.565 3.186 0 9.43 9.515 31.059 18.533 42.131 3.043 3.736 5.289 7.186 4.992 7.668-.298.482-5.58 2.058-11.737 3.502-13.363 3.133-18.297 5.222-22.225 9.408-2.576 2.745-3.59 3.13-8.25 3.13-2.922 0-5.313-.4-5.313-.889 0-2.939 4.275-5.399 14.808-8.52 11.55-3.423 15.062-5.553 17.787-10.791 3.149-6.053 1.416-11.981-5.705-19.51a42.5 42.5 0 01-10.882-21.25c-1.792-9.445-1.061-10.531 5.427-8.065z" fill="#fff"/></svg>