<svg width="411" height="368" fill="none" xmlns="http://www.w3.org/2000/svg"><path fill-rule="evenodd" clip-rule="evenodd" d="M92.27 1.263c-12.267 3.39-23.428 10.963-39.02 26.469C24.924 55.908 7.814 90.599 1.65 132.36c-2.205 14.949-2.2 45.044.012 61.371 4.107 30.31 9.122 44.852 22.392 64.918 6.616 10.005 22.474 26.77 32.81 34.687 4.073 3.12 7.406 6.081 7.406 6.581 0 .499 1.575 14.622 3.5 31.384s3.5 30.916 3.5 31.453c0 .537.9 1.877 2 2.977 1.915 1.915 3.333 2 33.5 2 29.371 0 31.626-.126 33.359-1.859 1.762-1.762 2.202-3.9 5.839-28.385l.556-3.744 5.623.744c7.039.931 35.909.974 42.681.064l5.057-.68 2.249 11.68c1.238 6.424 2.686 13.347 3.219 15.385 1.75 6.685 2.096 6.795 21.333 6.795 16.083 0 17.401-.14 19.109-2.028 1.376-1.52 2.496-6.647 4.477-20.489 1.454-10.153 2.896-18.715 3.207-19.025.31-.311 3.653 1.428 7.428 3.862 18.494 11.928 41.812 20.923 65.509 25.269 11.914 2.186 35.291 2.915 47.854 1.494 13.352-1.51 31.343-5.73 34.162-8.013 4.93-3.992.943-13.049-5.118-11.628-7.35 1.724-19.037 1.761-26.652.084-27.051-5.957-48.906-25.198-71.357-62.822-10.532-17.65-18.365-28.179-28.465-38.257-33.652-33.579-79.697-48.327-124.583-39.902-4.668.876-15.462 3.335-23.987 5.464-19.639 4.905-23.986 5.449-32 4.004-13.481-2.431-25.948-11.058-31.33-21.678-1.39-2.742-3.213-8.605-4.053-13.029-7.635-40.25 4.122-79.428 33.797-112.621l3.41-3.815 5.27 1.565c15.828 4.7 38.56-2.4 46.606-14.558 2.419-3.655 2.8-5.216 2.8-11.468 0-6.437-.332-7.703-3-11.455-3.462-4.868-15.745-12.746-25-16.035-7.983-2.837-24.681-3.55-32.5-1.388zm27.469 14.134c5.128 1.81 14.37 6.956 17.281 9.622 3.198 2.93 2.983 7.637-.5 10.969-7.95 7.605-22.742 10.274-32.65 5.89-8.674-3.836-9.923-3.268-21.203 9.635C68.755 67.426 58.29 85.539 51.796 104.95c-5.395 16.123-6.812 26.485-6.262 45.782.793 27.779 4.815 40.352 16.638 52.001 11.575 11.405 25.346 16.999 41.848 16.999 7.36 0 12.516-.877 28.856-4.905 24.431-6.024 31.256-7.095 45.205-7.095 31.473 0 62.223 12.655 86.031 35.406 11.633 11.116 18.584 20.112 28.863 37.352 10.893 18.271 18.294 28.353 28.701 39.1 8.922 9.213 16.186 15.148 25.175 20.568l5.919 3.569-4.5-.016c-12.82-.045-36.977-5.21-51.676-11.049-13.933-5.535-37.079-18.363-40.088-22.218-.597-.764-.573-4.055.064-8.9.873-6.64.782-8.038-.668-10.25-1.243-1.898-2.539-2.562-5-2.562-6.024 0-6.372 1.065-11.187 34.156-2.428 16.689-4.421 30.699-4.43 31.133-.008.434-3.929.659-8.714.5l-8.698-.289-9.28-45.442c-5.68-27.818-9.851-46.015-10.754-46.917-2.29-2.29-7.573-1.854-9.725.803-1.014 1.253-1.826 3.015-1.804 3.917.021.901 2.434 13.339 5.361 27.639 2.928 14.3 5.162 26.186 4.965 26.413-.197.227-7.275.623-15.73.879-15.113.46-29.19-.263-31.311-1.608-.757-.48-.528-4.407.77-13.184 1.788-12.093 1.789-12.581.028-15-2.137-2.934-6.741-3.733-9.573-1.662-1.662 1.217-2.627 6.046-6.554 32.794l-4.604 31.368h-16.827l-4.369-39.5c-4.759-43.021-5.051-44.215-10.953-44.807-2.154-.215-3.68.359-5.151 1.939-2.42 2.597-2.432 2.925-.667 16.868.73 5.775 1.18 10.667.998 10.871-.183.204-2.94-1.093-6.127-2.884-11.79-6.621-24.034-15.755-34.11-25.445-26.167-25.165-36.951-53.044-38.871-100.494-2.077-51.35 14.109-96.708 46.46-130.195 16.54-17.12 27.839-24.885 39.096-26.87 5.669-1 15.205-.22 20.598 1.682zm-11.537 5.46c-1.801 3.366.276 6.875 4.068 6.875s5.869-3.51 4.068-6.874c-1.555-2.904-6.581-2.904-8.136 0zM87.824 312.905l7.053 3.655 1.75 15.837c.962 8.71 2 17.298 2.307 19.086l.559 3.25H84.36l-.537-3.25c-.686-4.155-4.554-39.28-4.554-41.353 0-.86.338-1.41.75-1.222.412.188 3.924 1.986 7.804 3.997z" fill="#fff"/></svg>