<svg width="430" height="338" fill="none" xmlns="http://www.w3.org/2000/svg"><path fill-rule="evenodd" clip-rule="evenodd" d="M32.652 1.818c-3.026 3.344-4.09 12.778-4.08 36.168.009 20.577.239 23.573 2.686 35.058 6.063 28.453 17.338 52.659 36.058 77.409 6.919 9.147 27.84 30.394 34.917 35.459l4.732 3.388-7.465 7.814C86.902 210.3 75.704 226.63 66.105 245.815c-4.468 8.929-10.944 24.862-12.514 30.788-.962 3.627-3.94 6.694-25.091 25.836C.652 327.641 0 328.307 0 331.542c0 3.123 3.3 6.444 6.404 6.444 1.322 0 18.984-5.191 39.25-11.536L82.5 314.913l6 1.948c3.3 1.07 8.925 2.494 12.5 3.164 8.51 1.593 30.515 1.624 40 .055 23.666-3.914 49.214-13.386 71.265-26.423l7.326-4.332 4.955 3.864c44.61 34.789 114.23 49.086 183.954 37.777 6.6-1.07 13.71-2.431 15.799-3.024 4.261-1.208 6.313-4.382 5.34-8.259-.448-1.783-15.136-13.347-53.891-42.427-65.738-49.327-66.907-50.48-79.703-78.571-4.473-9.821-10.172-19.362-16.887-28.271l-3.069-4.072 5.205-6.26c2.863-3.444 28.269-27.219 56.456-52.835C384.964 64.341 389 60.422 389 57.485c0-1.952-.801-3.914-2.065-5.058-1.887-1.708-3.715-1.847-21.25-1.622-50.154.644-103.966 5.977-154.185 15.28-26.024 4.821-28.5 5.879-28.5 12.18 0 5.465.502 5.571 49.913 10.503l46.051 4.597-2.33 3.061c-3.663 4.811-19.302 18.234-32.385 27.796l-11.953 8.736-5.898-2.853c-9.244-4.472-18.696-7.604-34.907-11.568-17.268-4.223-29.494-9.559-39.749-17.35-3.717-2.823-28.476-25.061-55.02-49.417C70.178 27.414 46.556 5.799 44.228 3.736c-4.741-4.2-8.889-4.887-11.576-1.918zm59.106 63.848c50.568 46.37 57.947 52.314 73.053 58.854 4.229 1.831 14.924 5.131 23.767 7.333 15.332 3.818 29.422 8.604 29.422 9.994 0 .356-8.808 5.821-19.573 12.144-44.642 26.218-63.461 40.985-84.743 66.495-9.854 11.811-37.525 39.992-38.405 39.113-.836-.837 10.099-21.042 16.839-31.113 6.276-9.378 20.291-26.479 21.732-26.518.357-.009 3.013-2.215 5.9-4.902 4.122-3.835 5.25-5.541 5.25-7.94 0-3.247-.109-3.355-12.979-12.857-15.688-11.583-34.04-31.583-44.761-48.783-15.052-24.147-22.893-47.88-25.274-76.5-.832-9.996-.38-30 .678-30 .202 0 22.295 20.106 49.094 44.68zM364 64.432c0 .245-19.524 18.21-43.386 39.922-23.862 21.712-46.206 42.753-49.653 46.757-8.426 9.79-13.323 17.48-28.55 44.825-14.116 25.351-21.506 35.984-32.992 47.469-13.587 13.588-32.05 25.764-49.419 32.593-7.749 3.047-123.201 39.12-123.678 38.644-.215-.216 11.437-11.118 25.893-24.226 33.901-30.74 44.033-40.58 55.02-53.43 22.527-26.348 44.728-45.856 66.249-58.214 48.829-28.038 77.881-48.157 97.123-67.26 10.809-10.731 17.364-19.819 17.384-24.102.005-1.141-1.003-3.017-2.241-4.167-1.976-1.838-5.353-2.407-27.75-4.682-14.025-1.424-26.362-2.586-27.417-2.582-4.533.016-.138-1.104 9.801-2.499 28.146-3.951 62.694-7.179 90.116-8.418 9.35-.423 18.462-.838 20.25-.922 1.788-.085 3.25.047 3.25.292zm-47 9.554c-3.21 3.21-2.37 7.529 1.771 9.103 5.58 2.121 9.877-5.397 5.4-9.448-2.43-2.199-4.738-2.088-7.171.345zm-44.094 110.981c2.307 3.29 7.494 12.852 11.526 21.25 8.187 17.055 14.263 26.206 23.687 35.676 3.506 3.524 27.077 21.967 52.378 40.984l46.003 34.577-4.5.666c-2.475.366-11.475 1.22-20 1.898-32.746 2.604-68.466-1.322-96.863-10.646-20.002-6.568-44.162-19.786-58.567-32.042-2.161-1.839-4.902-3.344-6.09-3.344-1.189 0-5.945 2.289-10.57 5.086-28.618 17.306-57.178 26.917-84.685 28.498-19.791 1.137-18.194-.233 10.996-9.428 27.661-8.714 38.689-13.075 50.401-19.928 18.577-10.869 37.183-27.839 49.378-45.035 3.575-5.042 12.123-19.297 18.996-31.68 6.873-12.382 12.77-22.513 13.105-22.513.335 0 2.497 2.692 4.805 5.981z" fill="#fff"/></svg>