<?xml version="1.0" encoding="utf-8"?><svg xmlns="http://www.w3.org/2000/svg" xmlns:xlink="http://www.w3.org/1999/xlink"><symbol viewBox="0 0 416 230" id="1" xmlns="http://www.w3.org/2000/svg"><path fill-rule="evenodd" clip-rule="evenodd" d="M17.83.562c-4.414 1.477-6.79 10.117-6.828 24.827-.065 25.674 10.753 40.688 34.476 47.845 10.14 3.058 10.411 3.39 5.246 6.418-5.286 3.098-9.849 8.018-15.246 16.438l-4 6.242-6.73.008-6.729.009-1.899-3.75c-1.044-2.062-2.228-5.325-2.63-7.25-.405-1.925-1.429-4.287-2.278-5.25-2.105-2.386-6.782-2.202-9.35.366-2.792 2.792-2.198 9.898 1.41 16.85 1.65 3.184 2.21 5.223 1.542 5.635C2.828 110.178.022 117.865 0 122.139c-.024 4.76 2.546 10.574 6.131 13.865 3.31 3.04 14.096 8.778 22.347 11.89 13.808 5.207 22.581 6.657 42.247 6.985l18.247.305 5.594 4.985c3.076 2.742 9.165 6.942 13.53 9.333 4.366 2.391 8.556 4.797 9.313 5.347 1.153.838.815 4.857-2.085 24.838-4.403 30.33-4.71 29.662 13.63 29.662 12.166 0 12.744-.386 20.113-13.445 4.459-7.902 6.596-10.858 7.017-9.708.333.909 1.179 5.388 1.88 9.953 1.909 12.437 2.259 12.7 16.898 12.7 15.8 0 15.173.643 19.248-19.713l3.135-15.66 30.117.576c27.72.531 43.59-.221 49.076-2.326 2.517-.966 4.54 8.681 4.54 21.65 0 15.725-.419 15.365 18.352 15.805 19.107.447 20.216.052 25.419-9.066 9.275-16.252 15.854-33.291 19.245-49.846 1.031-5.028 2.011-9.256 2.179-9.394.168-.139 4.58-1.449 9.805-2.913 25.94-7.267 48.445-23.727 57.867-42.323 4.355-8.596 2.277-11.709-8.871-13.291-25.862-3.667-58.183-17.622-103.445-44.663-14.986-8.953-29.193-15.027-42.051-17.977-11.6-2.661-32.181-2.417-43 .51-9.433 2.554-26.059 10.455-32.69 15.537-5.374 4.118-6.433 4.357-7.295 1.643-1.421-4.48-10.627-16.966-16.624-22.55-11.765-10.953-26.191-16.5-42.916-16.5-10.12 0-13.975 1.923-13.975 6.968 0 4.488-3.652 15.097-7.028 20.418l-3.099 4.884-3.186-3.026c-6.61-6.28-14.547-8.931-30.646-10.24-12.645-1.027-17.015-2.604-22.733-8.202-4.902-4.8-7.913-11.201-8.86-18.842-1.09-8.787-3.91-11.651-9.597-9.746zm115.899 33.89c15.231 5.022 28.256 19.905 34.917 39.897 2.808 8.428 2.617 28.8-.329 35.176-4.778 10.339-14.074 17.211-28.056 20.74-7.917 1.998-10.46 4.836-8.732 9.748 1.497 4.257 5.097 5.047 13.645 2.996 26.678-6.403 41.127-26.264 39.404-54.16-.34-5.5-.881-11.183-1.202-12.63-.512-2.3.207-3.27 5.759-7.765 24.346-19.714 58.051-22.662 89.12-7.793 5.073 2.428 15.748 8.327 23.723 13.11 32.301 19.37 71.413 36.713 90.5 40.126 5.777 1.032 5.858 1.212 2.482 5.474-7.402 9.346-23.989 19.777-38.784 24.39-4.566 1.423-8.661 2.588-9.101 2.588-.44 0-1.067-3.712-1.393-8.25-.683-9.514-3.942-20.988-6.762-23.808-2.367-2.367-5.717-2.489-8.813-.32-2.693 1.887-2.611 4.749.441 15.378 2.406 8.38 2.424 28.152.034 38.915-2.612 11.767-7.08 24.073-13.091 36.059l-5.568 11.103-8.723-.288-8.722-.289-.585-10.5c-.322-5.775-1.275-12.302-2.119-14.504-.844-2.203-6.457-11.472-12.474-20.598-11.826-17.937-14.867-24.942-15.908-36.648-.401-4.503-.071-9.246.992-14.25 1.997-9.406 1.99-10.905-.061-13.171-2.114-2.336-7.54-2.38-9.606-.079-4.434 4.941-6.278 27.868-3.2 39.79 2.088 8.091 6.235 16.734 12.444 25.935 2.853 4.228 4.888 7.989 4.521 8.356-.937.939-48.07 1.46-59.211.655l-9.207-.666.569-2.844c.437-2.188-.023-3.435-1.998-5.41-3.166-3.166-6.051-3.263-9.012-.302-1.793 1.793-2.944 5.693-5.537 18.75-5.786 29.138-4.749 26.142-8.921 25.791l-3.623-.305-4.322-25.965c-2.926-17.583-4.843-26.542-5.937-27.75-2.027-2.241-7.068-2.31-9.476-.13-1.237 1.12-1.829 3.061-1.829 6 0 2.39-.22 4.345-.488 4.345s-4.881-1.404-10.25-3.12c-12.263-3.92-24.021-9.678-32.55-15.941l-6.611-4.854 3.162-6.13c4.295-8.329 4.481-15.262.489-18.271-2.185-1.647-3.291-1.878-5.396-1.128-3.063 1.091-3.926 2.394-5.332 8.043-.56 2.254-2.055 5.629-3.319 7.5l-2.3 3.401-17.452-.099c-15.33-.088-18.615-.409-27.012-2.644-11.64-3.099-27.684-10.889-28.836-14.002-.933-2.522-.362-5.462 1.266-6.521.621-.404 6.065-.959 12.098-1.234l10.97-.5 7.6-10.984c6.497-9.391 8.366-11.384 12.894-13.75 3.744-1.956 6.772-2.766 10.34-2.766 4.383 0 5.746-.543 10.423-4.151 2.96-2.283 8.77-7.754 12.911-12.156 11.484-12.207 18.165-22.858 21.99-35.055l1.839-5.862 5.532.633c3.043.348 8.345 1.56 11.783 2.694zm-92.25 13.72c3.3 1.105 10.274 2.306 15.5 2.67 12.666.884 18.737 2.68 23.547 6.97l3.952 3.525-5.204 4.9-5.204 4.9-7.39-3.873c-4.064-2.13-11.623-5.252-16.796-6.94-5.173-1.686-11.057-4.207-13.076-5.601-3.878-2.68-8.038-8.06-9.739-12.597l-1.02-2.723 4.714 3.382c2.593 1.86 7.415 4.285 10.715 5.388zm22.884 52.942c-2.336 1.539-2.55 5.07-.436 7.184 2.581 2.581 4.507 2.595 7.051.051 2.408-2.408 2.447-2.917.443-5.777-1.537-2.195-4.889-2.887-7.058-1.458zm81.365 83.367c2.338.608 4.25 1.359 4.25 1.669 0 .31-3.646 7.006-8.103 14.881-7.937 14.024-8.173 14.318-11.5 14.318-1.868 0-3.397-.2-3.397-.445 0-.699 3.901-27.687 4.517-31.247l.552-3.192 4.715 1.456c2.594.8 6.628 1.952 8.966 2.56z"/></symbol><symbol viewBox="0 0 429 284" id="2" xmlns="http://www.w3.org/2000/svg"><path fill-rule="evenodd" clip-rule="evenodd" d="M80.652 1.89c-3.92 1.027-9.77 3.208-13 4.845C61.339 9.934 13.937 43.97 8.486 49.217c-10.814 10.41-11.331 26.918-1.327 42.38 5.346 8.264 11.888 11.78 21.975 11.811l7.355.022 1.863 3.632c4.743 9.244 14.272 14.824 25.344 14.839 6.519.009 8.208-.54 29.379-9.561 12.354-5.264 22.8-9.202 23.213-8.75.683.747 6.991 21.224 6.991 22.695 0 .344-4.193.626-9.318.626-12.032 0-18.563 1.927-24.227 7.148-7.164 6.604-8.926 11.4-8.941 24.352-.012 9.754.247 11.419 2.286 14.7 3.305 5.315 8.51 8.229 14.7 8.229 8.765 0 15.338-5.781 16.97-14.927.393-2.198 1.235-4.329 1.872-4.734.637-.406 6.35-.744 12.696-.753l11.538-.015 3.755 4.491c5.298 6.339 15.859 14.619 24.776 19.427l7.607 4.102.656 7.74c1.269 14.969 5.496 25.649 13.703 34.63 2.71 2.965 4.927 5.846 4.927 6.403 0 .91-3.567 2.168-18 6.348-6.74 1.953-13.445 9.045-14.882 15.742-1.637 7.636-1.382 11.512.955 14.482 1.946 2.474 2.586 2.635 10.5 2.635 6.824 0 8.427.285 8.427 1.5 0 .825.9 2.4 2 3.5 1.928 1.928 3.333 2 38.886 2h36.886l5.226-2.75c3.143-1.654 6.478-4.482 8.364-7.095 2.996-4.148 3.154-4.846 3.482-15.442l.343-11.097 6.967-7.558c12.29-13.334 22.057-29.106 27.884-45.029l2.734-7.472 10.364-3.102c31.468-9.421 60.659-26.065 80.484-45.891 9.871-9.871 11.634-12.183 15.707-20.592 4.879-10.072 7.225-20.263 5.849-25.407-.431-1.611-1.984-3.826-3.451-4.921-3.314-2.474-4.888-1.841-13.225 5.32-13.595 11.678-31.654 17.3-48.596 15.13-10.414-1.334-17.981-3.739-32.207-10.235-22.527-10.286-32.73-12.73-68.307-16.356-28.859-2.941-38.645-4.642-50.39-8.756-24.3-8.511-44.747-23.492-61.043-44.723-10.888-14.184-22.348-21.956-38.367-26.018C102.831-.63 90.298-.64 80.652 1.89zm30.695 13.616c12.421 3.649 20.076 9.326 30.523 22.639 18.611 23.716 42.193 39.977 71.324 49.179 10.31 3.257 20.726 4.903 48.085 7.597 33.559 3.304 42.882 5.627 67.659 16.857 15.262 6.918 24.28 9.203 38.872 9.852 14.13.627 24.263-1.386 35.952-7.145 3.841-1.892 7.106-3.319 7.255-3.17.148.149-1.931 3.405-4.62 7.235-9.481 13.5-27.553 27.673-49.518 38.833-10.887 5.532-28.765 12.833-34.225 13.977l-3.125.655-.423-14.92c-.491-17.272-1.52-20.195-7.1-20.169-6.49.031-7.803 2.789-6.659 13.985 2.874 28.124-9.084 58.389-32.321 81.801l-7.247 7.302-.5 12.427c-.48 11.94-.609 12.536-3.271 15.198l-2.771 2.772-29.581.306c-34.857.361-36.504-.306-14.655-5.93 17.558-4.519 20.485-6.424 22.312-14.528 1.135-5.03-.451-9.364-5.938-16.228-10.94-13.686-15.221-22.811-17.765-37.869-1.39-8.229-1.465-11.243-.485-19.597 1.341-11.43 5.514-24.69 11.115-35.322 2.289-4.345 3.68-8.16 3.332-9.144-2.107-5.958-8.76-7.149-12.284-2.2-6.018 8.451-13.169 28.541-15.117 42.472l-1.218 8.701-3.587-.661c-8.934-1.648-24.186-9.312-31.587-15.871-3.168-2.808-3.6-3.554-2.079-3.587 5.057-.11 7.582-7.919 3.697-11.435-1.689-1.529-4.529-1.673-27.75-1.405-25.25.291-25.946.354-29.133 2.627-3.691 2.632-6.322 7.062-7.164 12.062-.701 4.163-3.207 6.071-5.487 4.179-1.166-.968-1.584-3.14-1.584-8.225 0-8.463 1.84-13.168 6.19-15.819 3.014-1.838 5.017-2.019 22.425-2.022 17.821-.004 19.294-.144 21.75-2.077 4.951-3.894 2.055-11.922-4.304-11.931-2.459-.003-2.78-.744-8.057-18.621-4.283-14.506-6.024-19.032-7.885-20.496-1.314-1.034-2.811-1.88-3.326-1.88-.516 0-13.023 5.176-27.793 11.5-14.77 6.326-28.027 11.501-29.46 11.501-5.92 0-14.54-6.429-14.54-10.842 0-1.211 7.4-5.362 26.159-14.673 14.387-7.142 27.437-14.038 29-15.324 3.736-3.076 3.821-7.245.206-10.088-1.449-1.14-3.252-2.073-4.006-2.073-.754 0-16.665 7.65-35.36 17-23.823 11.916-34.996 17-37.358 17-4.701 0-8.372-3.252-11.762-10.42-3.466-7.325-3.596-10.752-.63-16.561 1.926-3.77 5.94-7.085 27.815-22.962 25.995-18.871 31.615-22.343 39.823-24.606 6.686-1.844 21.675-1.767 28.181.144zM67.507 47.15c-4.355 2.08-4.151 10.078.3 11.77 4.372 1.663 9.472-1.747 9.472-6.333 0-2.018-3.094-5.4-5.5-6.013-1.1-.28-3.022-.021-4.272.576zm130.207 147.735c1.686.641 2.565 1.733 2.565 3.186 0 9.43 9.515 31.059 18.533 42.131 3.043 3.736 5.289 7.186 4.992 7.668-.298.482-5.58 2.058-11.737 3.502-13.363 3.133-18.297 5.222-22.225 9.408-2.576 2.745-3.59 3.13-8.25 3.13-2.922 0-5.313-.4-5.313-.889 0-2.939 4.275-5.399 14.808-8.52 11.55-3.423 15.062-5.553 17.787-10.791 3.149-6.053 1.416-11.981-5.705-19.51a42.5 42.5 0 01-10.882-21.25c-1.792-9.445-1.061-10.531 5.427-8.065z"/></symbol><symbol viewBox="0 0 411 368" id="3" xmlns="http://www.w3.org/2000/svg"><path fill-rule="evenodd" clip-rule="evenodd" d="M92.27 1.263c-12.267 3.39-23.428 10.963-39.02 26.469C24.924 55.908 7.814 90.599 1.65 132.36c-2.205 14.949-2.2 45.044.012 61.371 4.107 30.31 9.122 44.852 22.392 64.918 6.616 10.005 22.474 26.77 32.81 34.687 4.073 3.12 7.406 6.081 7.406 6.581 0 .499 1.575 14.622 3.5 31.384s3.5 30.916 3.5 31.453c0 .537.9 1.877 2 2.977 1.915 1.915 3.333 2 33.5 2 29.371 0 31.626-.126 33.359-1.859 1.762-1.762 2.202-3.9 5.839-28.385l.556-3.744 5.623.744c7.039.931 35.909.974 42.681.064l5.057-.68 2.249 11.68c1.238 6.424 2.686 13.347 3.219 15.385 1.75 6.685 2.096 6.795 21.333 6.795 16.083 0 17.401-.14 19.109-2.028 1.376-1.52 2.496-6.647 4.477-20.489 1.454-10.153 2.896-18.715 3.207-19.025.31-.311 3.653 1.428 7.428 3.862 18.494 11.928 41.812 20.923 65.509 25.269 11.914 2.186 35.291 2.915 47.854 1.494 13.352-1.51 31.343-5.73 34.162-8.013 4.93-3.992.943-13.049-5.118-11.628-7.35 1.724-19.037 1.761-26.652.084-27.051-5.957-48.906-25.198-71.357-62.822-10.532-17.65-18.365-28.179-28.465-38.257-33.652-33.579-79.697-48.327-124.583-39.902-4.668.876-15.462 3.335-23.987 5.464-19.639 4.905-23.986 5.449-32 4.004-13.481-2.431-25.948-11.058-31.33-21.678-1.39-2.742-3.213-8.605-4.053-13.029-7.635-40.25 4.122-79.428 33.797-112.621l3.41-3.815 5.27 1.565c15.828 4.7 38.56-2.4 46.606-14.558 2.419-3.655 2.8-5.216 2.8-11.468 0-6.437-.332-7.703-3-11.455-3.462-4.868-15.745-12.746-25-16.035-7.983-2.837-24.681-3.55-32.5-1.388zm27.469 14.134c5.128 1.81 14.37 6.956 17.281 9.622 3.198 2.93 2.983 7.637-.5 10.969-7.95 7.605-22.742 10.274-32.65 5.89-8.674-3.836-9.923-3.268-21.203 9.635C68.755 67.426 58.29 85.539 51.796 104.95c-5.395 16.123-6.812 26.485-6.262 45.782.793 27.779 4.815 40.352 16.638 52.001 11.575 11.405 25.346 16.999 41.848 16.999 7.36 0 12.516-.877 28.856-4.905 24.431-6.024 31.256-7.095 45.205-7.095 31.473 0 62.223 12.655 86.031 35.406 11.633 11.116 18.584 20.112 28.863 37.352 10.893 18.271 18.294 28.353 28.701 39.1 8.922 9.213 16.186 15.148 25.175 20.568l5.919 3.569-4.5-.016c-12.82-.045-36.977-5.21-51.676-11.049-13.933-5.535-37.079-18.363-40.088-22.218-.597-.764-.573-4.055.064-8.9.873-6.64.782-8.038-.668-10.25-1.243-1.898-2.539-2.562-5-2.562-6.024 0-6.372 1.065-11.187 34.156-2.428 16.689-4.421 30.699-4.43 31.133-.008.434-3.929.659-8.714.5l-8.698-.289-9.28-45.442c-5.68-27.818-9.851-46.015-10.754-46.917-2.29-2.29-7.573-1.854-9.725.803-1.014 1.253-1.826 3.015-1.804 3.917.021.901 2.434 13.339 5.361 27.639 2.928 14.3 5.162 26.186 4.965 26.413-.197.227-7.275.623-15.73.879-15.113.46-29.19-.263-31.311-1.608-.757-.48-.528-4.407.77-13.184 1.788-12.093 1.789-12.581.028-15-2.137-2.934-6.741-3.733-9.573-1.662-1.662 1.217-2.627 6.046-6.554 32.794l-4.604 31.368h-16.827l-4.369-39.5c-4.759-43.021-5.051-44.215-10.953-44.807-2.154-.215-3.68.359-5.151 1.939-2.42 2.597-2.432 2.925-.667 16.868.73 5.775 1.18 10.667.998 10.871-.183.204-2.94-1.093-6.127-2.884-11.79-6.621-24.034-15.755-34.11-25.445-26.167-25.165-36.951-53.044-38.871-100.494-2.077-51.35 14.109-96.708 46.46-130.195 16.54-17.12 27.839-24.885 39.096-26.87 5.669-1 15.205-.22 20.598 1.682zm-11.537 5.46c-1.801 3.366.276 6.875 4.068 6.875s5.869-3.51 4.068-6.874c-1.555-2.904-6.581-2.904-8.136 0zM87.824 312.905l7.053 3.655 1.75 15.837c.962 8.71 2 17.298 2.307 19.086l.559 3.25H84.36l-.537-3.25c-.686-4.155-4.554-39.28-4.554-41.353 0-.86.338-1.41.75-1.222.412.188 3.924 1.986 7.804 3.997z"/></symbol><symbol viewBox="0 0 430 338" id="4" xmlns="http://www.w3.org/2000/svg"><path fill-rule="evenodd" clip-rule="evenodd" d="M32.652 1.818c-3.026 3.344-4.09 12.778-4.08 36.168.009 20.577.239 23.573 2.686 35.058 6.063 28.453 17.338 52.659 36.058 77.409 6.919 9.147 27.84 30.394 34.917 35.459l4.732 3.388-7.465 7.814C86.902 210.3 75.704 226.63 66.105 245.815c-4.468 8.929-10.944 24.862-12.514 30.788-.962 3.627-3.94 6.694-25.091 25.836C.652 327.641 0 328.307 0 331.542c0 3.123 3.3 6.444 6.404 6.444 1.322 0 18.984-5.191 39.25-11.536L82.5 314.913l6 1.948c3.3 1.07 8.925 2.494 12.5 3.164 8.51 1.593 30.515 1.624 40 .055 23.666-3.914 49.214-13.386 71.265-26.423l7.326-4.332 4.955 3.864c44.61 34.789 114.23 49.086 183.954 37.777 6.6-1.07 13.71-2.431 15.799-3.024 4.261-1.208 6.313-4.382 5.34-8.259-.448-1.783-15.136-13.347-53.891-42.427-65.738-49.327-66.907-50.48-79.703-78.571-4.473-9.821-10.172-19.362-16.887-28.271l-3.069-4.072 5.205-6.26c2.863-3.444 28.269-27.219 56.456-52.835C384.964 64.341 389 60.422 389 57.485c0-1.952-.801-3.914-2.065-5.058-1.887-1.708-3.715-1.847-21.25-1.622-50.154.644-103.966 5.977-154.185 15.28-26.024 4.821-28.5 5.879-28.5 12.18 0 5.465.502 5.571 49.913 10.503l46.051 4.597-2.33 3.061c-3.663 4.811-19.302 18.234-32.385 27.796l-11.953 8.736-5.898-2.853c-9.244-4.472-18.696-7.604-34.907-11.568-17.268-4.223-29.494-9.559-39.749-17.35-3.717-2.823-28.476-25.061-55.02-49.417C70.178 27.414 46.556 5.799 44.228 3.736c-4.741-4.2-8.889-4.887-11.576-1.918zm59.106 63.848c50.568 46.37 57.947 52.314 73.053 58.854 4.229 1.831 14.924 5.131 23.767 7.333 15.332 3.818 29.422 8.604 29.422 9.994 0 .356-8.808 5.821-19.573 12.144-44.642 26.218-63.461 40.985-84.743 66.495-9.854 11.811-37.525 39.992-38.405 39.113-.836-.837 10.099-21.042 16.839-31.113 6.276-9.378 20.291-26.479 21.732-26.518.357-.009 3.013-2.215 5.9-4.902 4.122-3.835 5.25-5.541 5.25-7.94 0-3.247-.109-3.355-12.979-12.857-15.688-11.583-34.04-31.583-44.761-48.783-15.052-24.147-22.893-47.88-25.274-76.5-.832-9.996-.38-30 .678-30 .202 0 22.295 20.106 49.094 44.68zM364 64.432c0 .245-19.524 18.21-43.386 39.922-23.862 21.712-46.206 42.753-49.653 46.757-8.426 9.79-13.323 17.48-28.55 44.825-14.116 25.351-21.506 35.984-32.992 47.469-13.587 13.588-32.05 25.764-49.419 32.593-7.749 3.047-123.201 39.12-123.678 38.644-.215-.216 11.437-11.118 25.893-24.226 33.901-30.74 44.033-40.58 55.02-53.43 22.527-26.348 44.728-45.856 66.249-58.214 48.829-28.038 77.881-48.157 97.123-67.26 10.809-10.731 17.364-19.819 17.384-24.102.005-1.141-1.003-3.017-2.241-4.167-1.976-1.838-5.353-2.407-27.75-4.682-14.025-1.424-26.362-2.586-27.417-2.582-4.533.016-.138-1.104 9.801-2.499 28.146-3.951 62.694-7.179 90.116-8.418 9.35-.423 18.462-.838 20.25-.922 1.788-.085 3.25.047 3.25.292zm-47 9.554c-3.21 3.21-2.37 7.529 1.771 9.103 5.58 2.121 9.877-5.397 5.4-9.448-2.43-2.199-4.738-2.088-7.171.345zm-44.094 110.981c2.307 3.29 7.494 12.852 11.526 21.25 8.187 17.055 14.263 26.206 23.687 35.676 3.506 3.524 27.077 21.967 52.378 40.984l46.003 34.577-4.5.666c-2.475.366-11.475 1.22-20 1.898-32.746 2.604-68.466-1.322-96.863-10.646-20.002-6.568-44.162-19.786-58.567-32.042-2.161-1.839-4.902-3.344-6.09-3.344-1.189 0-5.945 2.289-10.57 5.086-28.618 17.306-57.178 26.917-84.685 28.498-19.791 1.137-18.194-.233 10.996-9.428 27.661-8.714 38.689-13.075 50.401-19.928 18.577-10.869 37.183-27.839 49.378-45.035 3.575-5.042 12.123-19.297 18.996-31.68 6.873-12.382 12.77-22.513 13.105-22.513.335 0 2.497 2.692 4.805 5.981z"/></symbol><symbol viewBox="0 0 42 40" id="badge" xmlns="http://www.w3.org/2000/svg"><path d="M38.552 25.795c-.645 1.985.235 4.766-.97 6.418-1.219 1.669-4.15 1.687-5.823 2.902-1.657 1.202-2.574 3.985-4.564 4.63-1.92.622-4.292-1.072-6.421-1.072-2.129 0-4.5 1.694-6.421 1.072-1.991-.645-2.907-3.428-4.564-4.631-1.674-1.215-4.604-1.232-5.822-2.901-1.207-1.653-.327-4.434-.972-6.419-.624-1.917-2.996-3.64-2.996-5.763 0-2.124 2.371-3.848 2.995-5.763.646-1.986-.234-4.766.972-6.418 1.218-1.67 4.148-1.687 5.821-2.903C11.445 3.744 12.361.962 14.352.318c1.92-.622 4.293 1.071 6.421 1.071 2.129 0 4.501-1.693 6.421-1.071 1.991.644 2.907 3.426 4.564 4.629 1.673 1.216 4.605 1.233 5.823 2.903 1.206 1.652.326 4.432.971 6.418.624 1.916 2.995 3.639 2.997 5.763 0 2.123-2.372 3.848-2.997 5.764zM20.773 5.49c-8.038 0-14.577 6.523-14.577 14.541 0 8.019 6.539 14.541 14.577 14.541S35.35 28.05 35.35 20.031c0-8.018-6.539-14.541-14.577-14.541zm0 26.708c-6.726 0-12.197-5.458-12.197-12.167S14.047 7.865 20.773 7.865c6.726 0 12.197 5.457 12.197 12.166 0 6.709-5.471 12.167-12.197 12.167zm8.353-14.388a.737.737 0 00-.652-.506l-5.119-.33-1.898-4.754a.735.735 0 00-1.367 0l-1.897 4.754-5.119.33a.736.736 0 00-.652.506.73.73 0 00.229.791l3.947 3.27-1.267 4.958a.733.733 0 00.28.775.742.742 0 00.826.027l4.336-2.734 4.337 2.734a.736.736 0 001.106-.802l-1.267-4.958 3.947-3.27a.735.735 0 00.23-.791z"/></symbol><symbol viewBox="0 0 21 17" id="image" xmlns="http://www.w3.org/2000/svg"><path d="M20.51 14.13h-2.406v2.393a.478.478 0 01-.482.474H.469a.478.478 0 01-.482-.474V4.321c0-.261.216-.473.482-.473h2.407V1.455c0-.262.215-.474.481-.474H20.51c.266 0 .482.212.482.474v12.202a.478.478 0 01-.482.473zm-18.056.821c.03-.656.179-1.539.422-2.457V5.118H1.281v10.608H16.81V14.13h-1.438c.117.332.207.623.265.825l-13.183-.004zM19.698 2.252H4.169V12.86h15.529V2.252zM10.924 6.52c.77 1.085 1.441 2.043 2.006 2.646.93.914 1.725-.471 2.7-.927 1.422-.665 2.593 2.792 2.895 3.849l-13.183-.003c.083-1.801 1.042-5.299 2.437-6.588 1.249-1.145 2.311-.143 3.145 1.023zm4.645-.313c-.895 0-1.621-.713-1.621-1.592 0-.879.726-1.592 1.621-1.592s1.621.713 1.621 1.592c0 .879-.726 1.592-1.621 1.592z"/></symbol><symbol viewBox="0 0 29 40" id="leaf" xmlns="http://www.w3.org/2000/svg"><path d="M24.214.398s-3.253 3.129-6.77 4.391C-8.602 14.133 2.383 32.341 2.741 32.401c0 0 1.461-2.522 3.434-3.961C18.694 19.312 21.239 8.804 21.239 8.804S18.43 21.448 7.291 29.315c-2.46 1.737-4.125 6.013-4.83 10.286 0 0 1.743-.698 2.493-.887.293-1.893.904-3.705 1.938-5.324 15.567 1.838 20.665-10.602 21.331-14.941C29.794 8.204 24.214.398 24.214.398z"/></symbol><symbol viewBox="0 0 15 14" id="link" xmlns="http://www.w3.org/2000/svg"><path d="M12.967 6.202l-2.571 2.57a3.634 3.634 0 01-5.139 0 3.67 3.67 0 01-.552-.733L5.9 6.844c.056-.056.127-.089.194-.128.082.282.226.55.448.771a1.82 1.82 0 002.57 0l2.569-2.569a1.819 1.819 0 000-2.57 1.82 1.82 0 00-2.569 0l-.914.915A4.557 4.557 0 005.88 3.01l1.947-1.947a3.635 3.635 0 015.14 5.139zm-6.795 4.226l-.915.914a1.82 1.82 0 01-2.57 0 1.82 1.82 0 010-2.57l2.57-2.57a1.82 1.82 0 012.57 0c.221.222.365.489.449.77.067-.038.136-.071.193-.128l1.194-1.193a3.563 3.563 0 00-.551-.733 3.633 3.633 0 00-5.14 0L1.403 7.487a3.635 3.635 0 005.139 5.14L8.49 10.68a4.563 4.563 0 01-2.318-.252z"/></symbol><symbol viewBox="0 0 22 16" id="photo-camera" xmlns="http://www.w3.org/2000/svg"><path d="M19.081 15.994H2.919a2.915 2.915 0 01-2.91-2.913V4.576a2.913 2.913 0 012.653-2.901c.13-.556.492-.935.924-.935h2.097c.43 0 .789.374.921.922H9.57l1.437-1.66h4.911l1.769 1.66h1.394a2.914 2.914 0 012.908 2.914v8.505a2.914 2.914 0 01-2.908 2.913zM2.641 6.513a.55.55 0 00-1.1 0v5.807a.55.55 0 001.1 0V6.513zm3.308-3.042a.58.58 0 00-.58-.581H3.878c-.32 0-.581.26-.581.581v.342c0 .32.261.58.581.58h1.491c.319 0 .58-.26.58-.58v-.342zm7.792.779a4.658 4.658 0 00-4.65 4.655 4.658 4.658 0 004.65 4.655 4.657 4.657 0 004.648-4.655 4.657 4.657 0 00-4.648-4.655zm0 7.918a3.265 3.265 0 01-3.259-3.263 3.264 3.264 0 013.259-3.262 3.263 3.263 0 010 6.525z"/></symbol><symbol viewBox="0 0 15 15" id="search" xmlns="http://www.w3.org/2000/svg"><path d="M13.977 12.501l-2.794-2.794a5.583 5.583 0 001.01-3.251c0-.777-.151-1.519-.452-2.228a5.742 5.742 0 00-1.222-1.833 5.75 5.75 0 00-1.833-1.223A5.647 5.647 0 006.457.72c-.777 0-1.519.151-2.228.452a5.729 5.729 0 00-1.833 1.223 5.729 5.729 0 00-1.223 1.833 5.642 5.642 0 00-.452 2.228c0 .777.151 1.52.452 2.229a5.75 5.75 0 001.223 1.833c.513.513 1.124.92 1.833 1.222a5.624 5.624 0 002.228.452 5.575 5.575 0 003.251-1.01l2.794 2.786a.97.97 0 00.734.309c.282 0 .527-.103.733-.309.206-.206.309-.451.309-.733a.995.995 0 00-.301-.734zM9.036 9.035c-.715.714-1.574 1.071-2.579 1.071-1.005 0-1.864-.357-2.578-1.071-.715-.715-1.072-1.574-1.072-2.579 0-1.005.357-1.864 1.072-2.578.714-.715 1.573-1.072 2.578-1.072s1.864.357 2.579 1.072c.714.714 1.071 1.573 1.071 2.578S9.75 8.32 9.036 9.035z"/></symbol><symbol viewBox="0 0 41 40" id="settings-work-tool" xmlns="http://www.w3.org/2000/svg"><path d="M35.223 15.061l-.194-.07-.754-1.807.082-.185c2.286-5.201 2.128-5.356 1.749-5.733l-3.048-2.985a.815.815 0 00-.533-.211c-.171 0-.69 0-5.192 2.046l-.181.081-1.856-.75-.075-.186c-2.117-5.26-2.334-5.26-2.86-5.26h-4.305c-.525 0-.764 0-2.727 5.27l-.074.192-1.847.756-.177-.074c-3.047-1.29-4.826-1.944-5.29-1.944a.815.815 0 00-.533.209L4.357 7.403c-.387.383-.547.543 1.858 5.636l.088.189-.756 1.805-.185.072C-.002 17.186-.002 17.388-.002 17.93v4.233c0 .543 0 .769 5.375 2.703l.192.068.756 1.8-.081.184c-2.285 5.203-2.14 5.343-1.751 5.732l3.043 2.989a.839.839 0 00.537.211c.17 0 .688 0 5.193-2.046l.18-.085 1.859.755.072.187c2.118 5.259 2.336 5.259 2.863 5.259h4.306c.541 0 .764 0 2.729-5.274l.074-.192 1.849-.751.177.072c3.045 1.293 4.822 1.945 5.283 1.945a.813.813 0 00.536-.208l3.056-2.999c.384-.385.544-.543-1.865-5.63l-.09-.191.754-1.798.181-.07c5.373-2.092 5.373-2.296 5.373-2.839v-4.23c0-.544 0-.768-5.376-2.694zM20.298 26.826c-3.846 0-6.976-3.081-6.976-6.866 0-3.783 3.13-6.86 6.976-6.86 3.845 0 6.975 3.077 6.975 6.86 0 3.784-3.13 6.866-6.975 6.866z"/></symbol><symbol viewBox="0 0 25 41" id="smartphone" xmlns="http://www.w3.org/2000/svg"><path d="M21.74 40.994H3.269c-1.799 0-3.26-1.438-3.26-3.207V4.101c0-1.77 1.461-3.209 3.26-3.209H21.74c1.798 0 3.259 1.439 3.259 3.209v33.686c0 1.769-1.461 3.207-3.259 3.207zm-9.236-1.203c.973 0 1.766-.78 1.766-1.737 0-.957-.793-1.738-1.766-1.738-.972 0-1.766.781-1.766 1.738s.794 1.737 1.766 1.737zm2.988-35.969a.796.796 0 00-.804-.791h-4.367a.796.796 0 00-.804.791v.022c0 .438.358.791.804.791h4.367a.796.796 0 00.804-.791v-.022zm6.791 3.487a.54.54 0 00-.543-.535H3.269a.54.54 0 00-.543.535v27.269a.54.54 0 00.543.534H21.74a.54.54 0 00.543-.534V7.309zm-2.711 25.13H5.437a.533.533 0 01-.538-.529v-.011c0-.293.24-.529.538-.529h14.135c.298 0 .538.236.538.529v.011a.534.534 0 01-.538.529zm0-3.208H5.437a.533.533 0 01-.538-.53v-.01c0-.292.24-.529.538-.529h14.135c.298 0 .538.237.538.529v.01c0 .293-.241.53-.538.53zm0-3.208H5.437a.533.533 0 01-.538-.53v-.01c0-.293.24-.529.538-.529h14.135c.298 0 .538.236.538.529v.01c0 .293-.241.53-.538.53zm0-3.208H5.437a.533.533 0 01-.538-.53v-.01c0-.293.24-.53.538-.53h14.135c.298 0 .538.237.538.53v.01c0 .293-.241.53-.538.53zm0-3.209H5.437a.532.532 0 01-.538-.529v-.011c0-.292.24-.529.538-.529h14.135c.298 0 .538.237.538.529v.011a.533.533 0 01-.538.529zm-.005-6.951h-1.629a.539.539 0 01-.544-.534v-1.604a.54.54 0 01.544-.535h1.629c.3 0 .543.24.543.535v1.604a.54.54 0 01-.543.534zm-4.346.001h-1.63a.54.54 0 01-.543-.535v-1.604a.54.54 0 01.543-.534h1.63c.299 0 .542.239.542.534v1.604a.54.54 0 01-.542.535zm-3.803 0h-1.63a.54.54 0 01-.543-.535v-1.604a.54.54 0 01.543-.534h1.63c.3 0 .543.239.543.534v1.604a.54.54 0 01-.543.535zm-4.346 0h-1.63a.54.54 0 01-.543-.535v-1.604c0-.295.243-.534.543-.534h1.63a.54.54 0 01.543.534v1.604a.54.54 0 01-.543.535zm-1.635 2.673h9.246c.297 0 .538.237.538.53v.01c0 .293-.241.53-.538.53H5.437a.533.533 0 01-.538-.53v-.01c0-.293.24-.53.538-.53z"/></symbol><symbol viewBox="0 0 18 20" id="video" xmlns="http://www.w3.org/2000/svg"><path d="M1.205 20h15.59c.664 0 1.207-.574 1.207-1.274V1.273c0-.7-.543-1.274-1.207-1.274H1.205c-.666 0-1.208.574-1.208 1.274v17.453c0 .7.542 1.274 1.208 1.274zM15.057 1.557c0-.211.165-.382.363-.382h1.131c.2 0 .362.171.362.382v1.23a.373.373 0 01-.362.383H15.42a.375.375 0 01-.363-.383v-1.23zm0 3.131c0-.212.165-.383.363-.383h1.131c.2 0 .362.171.362.383v1.23a.373.373 0 01-.362.383H15.42a.375.375 0 01-.363-.383v-1.23zm0 3.132c0-.211.165-.383.363-.383h1.131c.2 0 .362.172.362.383v1.231c0 .209-.162.382-.362.382H15.42a.376.376 0 01-.363-.382V7.82zm0 3.13c0-.211.165-.383.363-.383h1.131c.2 0 .362.172.362.383v1.231a.373.373 0 01-.362.383H15.42a.375.375 0 01-.363-.383V10.95zm0 3.131c0-.211.165-.383.363-.383h1.131c.2 0 .362.172.362.383v1.231c0 .21-.162.381-.362.381H15.42a.374.374 0 01-.363-.381v-1.231zm0 3.13c0-.21.165-.382.363-.382h1.131c.2 0 .362.172.362.382v1.233a.373.373 0 01-.362.381H15.42a.374.374 0 01-.363-.381v-1.233zM4.183 2.481c0-.212.163-.382.363-.382h8.908c.198 0 .362.17.362.382v6.093c0 .21-.164.383-.362.383H4.546a.375.375 0 01-.363-.383V2.481zm0 9.396c0-.21.163-.381.363-.381h8.908c.198 0 .362.171.362.381v5.633c0 .21-.164.382-.362.382H4.546a.374.374 0 01-.363-.382v-5.633zM1.086 1.557c0-.211.162-.382.362-.382H2.58c.199 0 .361.171.361.382v1.23c0 .212-.162.383-.361.383H1.448a.373.373 0 01-.362-.383v-1.23zm0 3.131c0-.212.162-.383.362-.383H2.58c.199 0 .361.171.361.383v1.23c0 .211-.162.383-.361.383H1.448a.373.373 0 01-.362-.383v-1.23zm0 3.132c0-.211.162-.383.362-.383H2.58c.199 0 .361.172.361.383v1.231c0 .209-.162.382-.361.382H1.448c-.2 0-.362-.173-.362-.382V7.82zm0 3.13c0-.211.162-.383.362-.383H2.58c.199 0 .361.172.361.383v1.231c0 .212-.162.383-.361.383H1.448a.373.373 0 01-.362-.383V10.95zm0 3.131c0-.211.162-.383.362-.383H2.58c.199 0 .361.172.361.383v1.231c0 .21-.162.381-.361.381H1.448a.372.372 0 01-.362-.381v-1.231zm0 3.13c0-.21.162-.382.362-.382H2.58c.199 0 .361.172.361.382v1.233a.373.373 0 01-.361.381H1.448a.372.372 0 01-.362-.381v-1.233z"/></symbol></svg>