<svg width="430" height="338" viewBox="0 0 430 338" fill="none" xmlns="http://www.w3.org/2000/svg">
<path fill-rule="evenodd" clip-rule="evenodd" d="M32.652 1.81801C29.626 5.16201 28.562 14.596 28.572 37.986C28.581 58.563 28.811 61.559 31.258 73.044C37.321 101.497 48.596 125.703 67.316 150.453C74.235 159.6 95.156 180.847 102.233 185.912L106.965 189.3L99.5 197.114C86.902 210.3 75.704 226.63 66.105 245.815C61.637 254.744 55.161 270.677 53.591 276.603C52.629 280.23 49.651 283.297 28.5 302.439C0.652 327.641 0 328.307 0 331.542C0 334.665 3.3 337.986 6.404 337.986C7.726 337.986 25.388 332.795 45.654 326.45L82.5 314.913L88.5 316.861C91.8 317.931 97.425 319.355 101 320.025C109.51 321.618 131.515 321.649 141 320.08C164.666 316.166 190.214 306.694 212.265 293.657L219.591 289.325L224.546 293.189C269.156 327.978 338.776 342.275 408.5 330.966C415.1 329.896 422.21 328.535 424.299 327.942C428.56 326.734 430.612 323.56 429.639 319.683C429.191 317.9 414.503 306.336 375.748 277.256C310.01 227.929 308.841 226.776 296.045 198.685C291.572 188.864 285.873 179.323 279.158 170.414L276.089 166.342L281.294 160.082C284.157 156.638 309.563 132.863 337.75 107.247C384.964 64.341 389 60.422 389 57.485C389 55.533 388.199 53.571 386.935 52.427C385.048 50.719 383.22 50.58 365.685 50.805C315.531 51.449 261.719 56.782 211.5 66.085C185.476 70.906 183 71.964 183 78.265C183 83.73 183.502 83.836 232.913 88.768L278.964 93.365L276.634 96.426C272.971 101.237 257.332 114.66 244.249 124.222L232.296 132.958L226.398 130.105C217.154 125.633 207.702 122.501 191.491 118.537C174.223 114.314 161.997 108.978 151.742 101.187C148.025 98.364 123.266 76.126 96.722 51.77C70.178 27.414 46.556 5.79901 44.228 3.73601C39.487 -0.46399 35.339 -1.15099 32.652 1.81801ZM91.758 65.666C142.326 112.036 149.705 117.98 164.811 124.52C169.04 126.351 179.735 129.651 188.578 131.853C203.91 135.671 218 140.457 218 141.847C218 142.203 209.192 147.668 198.427 153.991C153.785 180.209 134.966 194.976 113.684 220.486C103.83 232.297 76.159 260.478 75.279 259.599C74.443 258.762 85.378 238.557 92.118 228.486C98.394 219.108 112.409 202.007 113.85 201.968C114.207 201.959 116.863 199.753 119.75 197.066C123.872 193.231 125 191.525 125 189.126C125 185.879 124.891 185.771 112.021 176.269C96.333 164.686 77.981 144.686 67.26 127.486C52.208 103.339 44.367 79.606 41.986 50.986C41.154 40.99 41.606 20.986 42.664 20.986C42.866 20.986 64.959 41.092 91.758 65.666ZM364 64.432C364 64.677 344.476 82.642 320.614 104.354C296.752 126.066 274.408 147.107 270.961 151.111C262.535 160.901 257.638 168.591 242.411 195.936C228.295 221.287 220.905 231.92 209.419 243.405C195.832 256.993 177.369 269.169 160 275.998C152.251 279.045 36.799 315.118 36.322 314.642C36.107 314.426 47.759 303.524 62.215 290.416C96.116 259.676 106.248 249.836 117.235 236.986C139.762 210.638 161.963 191.13 183.484 178.772C232.313 150.734 261.365 130.615 280.607 111.512C291.416 100.781 297.971 91.693 297.991 87.41C297.996 86.269 296.988 84.393 295.75 83.243C293.774 81.405 290.397 80.836 268 78.561C253.975 77.137 241.638 75.975 240.583 75.979C236.05 75.995 240.445 74.875 250.384 73.48C278.53 69.529 313.078 66.301 340.5 65.062C349.85 64.639 358.962 64.224 360.75 64.14C362.538 64.055 364 64.187 364 64.432ZM317 73.986C313.79 77.196 314.63 81.515 318.771 83.089C324.351 85.21 328.648 77.692 324.171 73.641C321.741 71.442 319.433 71.553 317 73.986ZM272.906 184.967C275.213 188.257 280.4 197.819 284.432 206.217C292.619 223.272 298.695 232.423 308.119 241.893C311.625 245.417 335.196 263.86 360.497 282.877L406.5 317.454L402 318.12C399.525 318.486 390.525 319.34 382 320.018C349.254 322.622 313.534 318.696 285.137 309.372C265.135 302.804 240.975 289.586 226.57 277.33C224.409 275.491 221.668 273.986 220.48 273.986C219.291 273.986 214.535 276.275 209.91 279.072C181.292 296.378 152.732 305.989 125.225 307.57C105.434 308.707 107.031 307.337 136.221 298.142C163.882 289.428 174.91 285.067 186.622 278.214C205.199 267.345 223.805 250.375 236 233.179C239.575 228.137 248.123 213.882 254.996 201.499C261.869 189.117 267.766 178.986 268.101 178.986C268.436 178.986 270.598 181.678 272.906 184.967Z" fill="white"/>
</svg>
