<svg width="416" height="230" viewBox="0 0 416 230" fill="none" xmlns="http://www.w3.org/2000/svg">
<path fill-rule="evenodd" clip-rule="evenodd" d="M17.8292 0.561845C13.4162 2.03884 11.0402 10.6788 11.0022 25.3888C10.9372 51.0628 21.7552 66.0768 45.4782 73.2338C55.6182 76.2918 55.8892 76.6248 50.7242 79.6518C45.4382 82.7498 40.8752 87.6698 35.4782 96.0898L31.4782 102.332L24.7482 102.34L18.0192 102.349L16.1202 98.5988C15.0762 96.5368 13.8922 93.2738 13.4892 91.3488C13.0852 89.4238 12.0612 87.0618 11.2122 86.0988C9.10717 83.7128 4.43017 83.8968 1.86217 86.4648C-0.929834 89.2568 -0.335834 96.3628 3.27117 103.315C4.92217 106.499 5.48117 108.538 4.81417 108.95C2.82817 110.178 0.0221667 117.865 0.000166695 122.139C-0.0238333 126.899 2.54617 132.713 6.13117 136.004C9.44117 139.044 20.2272 144.782 28.4782 147.894C42.2862 153.101 51.0592 154.551 70.7252 154.879L88.9722 155.184L94.5662 160.169C97.6422 162.911 103.731 167.111 108.096 169.502C112.462 171.893 116.652 174.299 117.409 174.849C118.562 175.687 118.224 179.706 115.324 199.687C110.921 230.017 110.614 229.349 128.954 229.349C141.12 229.349 141.698 228.963 149.067 215.904C153.526 208.002 155.663 205.046 156.084 206.196C156.417 207.105 157.263 211.584 157.964 216.149C159.873 228.586 160.223 228.849 174.862 228.849C190.662 228.849 190.035 229.492 194.11 209.136L197.245 193.476L227.362 194.052C255.082 194.583 270.952 193.831 276.438 191.726C278.955 190.76 280.978 200.407 280.978 213.376C280.978 229.101 280.559 228.741 299.33 229.181C318.437 229.628 319.546 229.233 324.749 220.115C334.024 203.863 340.603 186.824 343.994 170.269C345.025 165.241 346.005 161.013 346.173 160.875C346.341 160.736 350.753 159.426 355.978 157.962C381.918 150.695 404.423 134.235 413.845 115.639C418.2 107.043 416.122 103.93 404.974 102.348C379.112 98.6808 346.791 84.7258 301.529 57.6848C286.543 48.7318 272.336 42.6578 259.478 39.7078C247.878 37.0468 227.297 37.2908 216.478 40.2188C207.045 42.7718 190.419 50.6729 183.788 55.7549C178.414 59.8729 177.355 60.1118 176.493 57.3978C175.072 52.9188 165.866 40.4318 159.869 34.8488C148.104 23.8948 133.678 18.3488 116.953 18.3488C106.833 18.3488 102.978 20.2708 102.978 25.3158C102.978 29.8038 99.3262 40.4128 95.9502 45.7338L92.8512 50.6178L89.6652 47.5918C83.0542 41.3118 75.1182 38.6609 59.0192 37.3519C46.3742 36.3249 42.0042 34.7478 36.2862 29.1498C31.3842 24.3508 28.3732 17.9488 27.4252 10.3078C26.3352 1.52085 23.5162 -1.34316 17.8292 0.561845ZM133.729 34.4518C148.96 39.4738 161.985 54.3568 168.646 74.3488C171.454 82.7768 171.263 103.149 168.317 109.525C163.539 119.864 154.243 126.736 140.261 130.265C132.344 132.263 129.801 135.101 131.529 140.013C133.026 144.27 136.626 145.06 145.174 143.009C171.852 136.606 186.301 116.745 184.578 88.8488C184.238 83.3488 183.697 77.6658 183.376 76.2198C182.864 73.9188 183.583 72.9498 189.135 68.4538C213.481 48.7398 247.186 45.7918 278.255 60.6608C283.328 63.0888 294.003 68.9878 301.978 73.7708C334.279 93.1418 373.391 110.484 392.478 113.897C398.255 114.929 398.336 115.109 394.96 119.371C387.558 128.717 370.971 139.148 356.176 143.761C351.61 145.184 347.515 146.349 347.075 146.349C346.635 146.349 346.008 142.637 345.682 138.099C344.999 128.585 341.74 117.111 338.92 114.291C336.553 111.924 333.203 111.802 330.107 113.971C327.414 115.858 327.496 118.72 330.548 129.349C332.954 137.729 332.972 157.501 330.582 168.264C327.97 180.031 323.502 192.337 317.491 204.323L311.923 215.426L303.2 215.138L294.478 214.849L293.893 204.349C293.571 198.574 292.618 192.047 291.774 189.845C290.93 187.642 285.317 178.373 279.3 169.247C267.474 151.31 264.433 144.305 263.392 132.599C262.991 128.096 263.321 123.353 264.384 118.349C266.381 108.943 266.374 107.444 264.323 105.178C262.209 102.842 256.783 102.798 254.717 105.099C250.283 110.04 248.439 132.967 251.517 144.889C253.605 152.98 257.752 161.623 263.961 170.824C266.814 175.052 268.849 178.813 268.482 179.18C267.545 180.119 220.412 180.64 209.271 179.835L200.064 179.169L200.633 176.325C201.07 174.137 200.61 172.89 198.635 170.915C195.469 167.749 192.584 167.652 189.623 170.613C187.83 172.406 186.679 176.306 184.086 189.363C178.3 218.501 179.337 215.505 175.165 215.154L171.542 214.849L167.22 188.884C164.294 171.301 162.377 162.342 161.283 161.134C159.256 158.893 154.215 158.824 151.807 161.004C150.57 162.124 149.978 164.065 149.978 167.004C149.978 169.394 149.758 171.349 149.49 171.349C149.222 171.349 144.609 169.945 139.24 168.229C126.977 164.309 115.219 158.551 106.69 152.288L100.079 147.434L103.241 141.304C107.536 132.975 107.722 126.042 103.73 123.033C101.545 121.386 100.439 121.155 98.3342 121.905C95.2712 122.996 94.4082 124.299 93.0022 129.948C92.4412 132.202 90.9472 135.577 89.6832 137.448L87.3832 140.849L69.9312 140.75C54.6002 140.662 51.3162 140.341 42.9192 138.106C31.2782 135.007 15.2352 127.217 14.0832 124.104C13.1502 121.582 13.7212 118.642 15.3492 117.583C15.9702 117.179 21.4142 116.624 27.4472 116.349L38.4172 115.849L46.0162 104.865C52.5142 95.4739 54.3832 93.4809 58.9112 91.1149C62.6552 89.1589 65.6832 88.3488 69.2502 88.3488C73.6342 88.3488 74.9972 87.8058 79.6742 84.1978C82.6332 81.9148 88.4432 76.4438 92.5852 72.0418C104.069 59.8348 110.75 49.1838 114.575 36.9868L116.414 31.1248L121.946 31.7578C124.989 32.1058 130.291 33.3178 133.729 34.4518ZM41.4782 48.1729C44.7782 49.2769 51.7532 50.4778 56.9782 50.8418C69.6452 51.7258 75.7162 53.5228 80.5262 57.8118L84.4782 61.3369L79.2742 66.2368L74.0702 71.1368L66.6802 67.2638C62.6162 65.1348 55.0572 62.0118 49.8842 60.3248C44.7112 58.6378 38.8272 56.1168 36.8082 54.7228C32.9302 52.0438 28.7702 46.6638 27.0692 42.1258L26.0482 39.4028L30.7632 42.7849C33.3562 44.6449 38.1782 47.0699 41.4782 48.1729ZM64.3632 101.114C62.0272 102.653 61.8132 106.184 63.9272 108.298C66.5082 110.879 68.4342 110.893 70.9782 108.349C73.3862 105.941 73.4252 105.432 71.4212 102.572C69.8842 100.377 66.5322 99.6848 64.3632 101.114ZM145.728 184.481C148.066 185.089 149.978 185.84 149.978 186.15C149.978 186.46 146.332 193.156 141.875 201.031C133.938 215.055 133.702 215.349 130.375 215.349C128.507 215.349 126.978 215.149 126.978 214.904C126.978 214.205 130.879 187.217 131.495 183.657L132.047 180.465L136.762 181.921C139.356 182.721 143.39 183.873 145.728 184.481Z" fill="white"/>
</svg>
