<svg width="429" height="284" viewBox="0 0 429 284" fill="none" xmlns="http://www.w3.org/2000/svg">
<path fill-rule="evenodd" clip-rule="evenodd" d="M80.6516 1.88965C76.7316 2.91665 70.8816 5.09765 67.6516 6.73465C61.3386 9.93365 13.9366 43.9697 8.48556 49.2167C-2.32844 59.6267 -2.84544 76.1346 7.15856 91.5976C12.5046 99.8606 19.0466 103.377 29.1336 103.408L36.4886 103.43L38.3516 107.062C43.0946 116.306 52.6236 121.886 63.6956 121.901C70.2146 121.91 71.9036 121.361 93.0746 112.34C105.429 107.076 115.875 103.138 116.288 103.59C116.971 104.337 123.279 124.814 123.279 126.285C123.279 126.629 119.086 126.911 113.961 126.911C101.929 126.911 95.3976 128.838 89.7336 134.059C82.5696 140.663 80.8076 145.459 80.7926 158.411C80.7806 168.165 81.0396 169.83 83.0786 173.111C86.3836 178.426 91.5886 181.34 97.7786 181.34C106.544 181.34 113.117 175.559 114.749 166.413C115.142 164.215 115.984 162.084 116.621 161.679C117.258 161.273 122.971 160.935 129.317 160.926L140.855 160.911L144.61 165.402C149.908 171.741 160.469 180.021 169.386 184.829L176.993 188.931L177.649 196.671C178.918 211.64 183.145 222.32 191.352 231.301C194.062 234.266 196.279 237.147 196.279 237.704C196.279 238.614 192.712 239.872 178.279 244.052C171.539 246.005 164.834 253.097 163.397 259.794C161.76 267.43 162.015 271.306 164.352 274.276C166.298 276.75 166.938 276.911 174.852 276.911C181.676 276.911 183.279 277.196 183.279 278.411C183.279 279.236 184.179 280.811 185.279 281.911C187.207 283.839 188.612 283.911 224.165 283.911H261.051L266.277 281.161C269.42 279.507 272.755 276.679 274.641 274.066C277.637 269.918 277.795 269.22 278.123 258.624L278.466 247.527L285.433 239.969C297.723 226.635 307.49 210.863 313.317 194.94L316.051 187.468L326.415 184.366C357.883 174.945 387.074 158.301 406.899 138.475C416.77 128.604 418.533 126.292 422.606 117.883C427.485 107.811 429.831 97.6197 428.455 92.4757C428.024 90.8647 426.471 88.6496 425.004 87.5546C421.69 85.0806 420.116 85.7136 411.779 92.8756C398.184 104.553 380.125 110.175 363.183 108.005C352.769 106.671 345.202 104.266 330.976 97.7696C308.449 87.4836 298.246 85.0407 262.669 81.4137C233.81 78.4727 224.024 76.7716 212.279 72.6576C187.979 64.1466 167.532 49.1657 151.236 27.9347C140.348 13.7507 128.888 5.97865 112.869 1.91665C102.831 -0.629349 90.2976 -0.63935 80.6516 1.88965ZM111.347 15.5057C123.768 19.1547 131.423 24.8316 141.87 38.1446C160.481 61.8606 184.063 78.1216 213.194 87.3236C223.504 90.5806 233.92 92.2266 261.279 94.9206C294.838 98.2246 304.161 100.548 328.938 111.778C344.2 118.696 353.218 120.981 367.81 121.63C381.94 122.257 392.073 120.244 403.762 114.485C407.603 112.593 410.868 111.166 411.017 111.315C411.165 111.464 409.086 114.72 406.397 118.55C396.916 132.05 378.844 146.223 356.879 157.383C345.992 162.915 328.114 170.216 322.654 171.36L319.529 172.015L319.106 157.095C318.615 139.823 317.586 136.9 312.006 136.926C305.516 136.957 304.203 139.715 305.347 150.911C308.221 179.035 296.263 209.3 273.026 232.712L265.779 240.014L265.279 252.441C264.799 264.381 264.67 264.977 262.008 267.639L259.237 270.411L229.656 270.717C194.799 271.078 193.152 270.411 215.001 264.787C232.559 260.268 235.486 258.363 237.313 250.259C238.448 245.229 236.862 240.895 231.375 234.031C220.435 220.345 216.154 211.22 213.61 196.162C212.22 187.933 212.145 184.919 213.125 176.565C214.466 165.135 218.639 151.875 224.24 141.243C226.529 136.898 227.92 133.083 227.572 132.099C225.465 126.141 218.812 124.95 215.288 129.899C209.27 138.35 202.119 158.44 200.171 172.371L198.953 181.072L195.366 180.411C186.432 178.763 171.18 171.099 163.779 164.54C160.611 161.732 160.179 160.986 161.7 160.953C166.757 160.843 169.282 153.034 165.397 149.518C163.708 147.989 160.868 147.845 137.647 148.113C112.397 148.404 111.701 148.467 108.514 150.74C104.823 153.372 102.192 157.802 101.35 162.802C100.649 166.965 98.1426 168.873 95.8626 166.981C94.6966 166.013 94.2786 163.841 94.2786 158.756C94.2786 150.293 96.1196 145.588 100.469 142.937C103.483 141.099 105.486 140.918 122.894 140.915C140.715 140.911 142.188 140.771 144.644 138.838C149.595 134.944 146.699 126.916 140.34 126.907C137.881 126.904 137.56 126.163 132.283 108.286C128 93.7797 126.259 89.2536 124.398 87.7896C123.084 86.7556 121.587 85.9107 121.072 85.9107C120.556 85.9107 108.049 91.0857 93.2786 97.4107C78.5086 103.736 65.2516 108.911 63.8186 108.911C57.8996 108.911 49.2786 102.482 49.2786 98.0687C49.2786 96.8577 56.6796 92.7067 75.4376 83.3957C89.8246 76.2537 102.875 69.3576 104.438 68.0716C108.174 64.9956 108.259 60.8267 104.644 57.9837C103.195 56.8437 101.392 55.9107 100.638 55.9107C99.8836 55.9107 83.9726 63.5607 65.2786 72.9107C41.4546 84.8267 30.2816 89.9107 27.9196 89.9107C23.2186 89.9107 19.5476 86.6586 16.1576 79.4916C12.6916 72.1656 12.5616 68.7386 15.5286 62.9296C17.4536 59.1596 21.4686 55.8447 43.3426 39.9677C69.3376 21.0967 74.9576 17.6247 83.1656 15.3617C89.8516 13.5177 104.841 13.5947 111.347 15.5057ZM67.5066 47.1507C63.1516 49.2307 63.3556 57.2287 67.8066 58.9217C72.1786 60.5837 77.2786 57.1737 77.2786 52.5877C77.2786 50.5697 74.1846 47.1877 71.7786 46.5747C70.6786 46.2947 68.7566 46.5537 67.5066 47.1507ZM197.714 194.886C199.4 195.527 200.279 196.619 200.279 198.072C200.279 207.502 209.794 229.131 218.812 240.203C221.855 243.939 224.101 247.389 223.804 247.871C223.506 248.353 218.224 249.929 212.067 251.373C198.704 254.506 193.77 256.595 189.842 260.781C187.266 263.526 186.252 263.911 181.592 263.911C178.67 263.911 176.279 263.511 176.279 263.022C176.279 260.083 180.554 257.623 191.087 254.502C202.637 251.079 206.149 248.949 208.874 243.711C212.023 237.658 210.29 231.73 203.169 224.201C197.58 218.292 193.794 210.898 192.287 202.951C190.495 193.506 191.226 192.42 197.714 194.886Z" fill="white"/>
</svg>
