<svg width="411" height="368" viewBox="0 0 411 368" fill="none" xmlns="http://www.w3.org/2000/svg">
<path fill-rule="evenodd" clip-rule="evenodd" d="M92.2699 1.26256C80.0029 4.65356 68.8419 12.2256 53.2509 27.7316C24.9229 55.9076 7.81288 90.5985 1.65088 132.361C-0.555118 147.31 -0.54912 177.405 1.66188 193.732C5.76888 224.042 10.7839 238.584 24.0539 258.65C30.6699 268.655 46.5279 285.42 56.8639 293.337C60.9369 296.457 64.2699 299.418 64.2699 299.918C64.2699 300.417 65.8449 314.54 67.7699 331.302C69.6949 348.064 71.2699 362.218 71.2699 362.755C71.2699 363.292 72.1699 364.632 73.2699 365.732C75.1849 367.647 76.6029 367.732 106.77 367.732C136.141 367.732 138.396 367.606 140.129 365.873C141.891 364.111 142.331 361.973 145.968 337.488L146.524 333.744L152.147 334.488C159.186 335.419 188.056 335.462 194.828 334.552L199.885 333.872L202.134 345.552C203.372 351.976 204.82 358.899 205.353 360.937C207.103 367.622 207.449 367.732 226.686 367.732C242.769 367.732 244.087 367.592 245.795 365.704C247.171 364.184 248.291 359.057 250.272 345.215C251.726 335.062 253.168 326.5 253.479 326.19C253.789 325.879 257.132 327.618 260.907 330.052C279.401 341.98 302.719 350.975 326.416 355.321C338.33 357.507 361.707 358.236 374.27 356.815C387.622 355.305 405.613 351.085 408.432 348.802C413.362 344.81 409.375 335.753 403.314 337.174C395.964 338.898 384.277 338.935 376.662 337.258C349.611 331.301 327.756 312.06 305.305 274.436C294.773 256.786 286.94 246.257 276.84 236.179C243.188 202.6 197.143 187.852 152.257 196.277C147.589 197.153 136.795 199.612 128.27 201.741C108.631 206.646 104.284 207.19 96.2699 205.745C82.7889 203.314 70.3219 194.687 64.9399 184.067C63.5499 181.325 61.7269 175.462 60.8869 171.038C53.2519 130.788 65.0089 91.6096 94.6839 58.4166L98.0939 54.6016L103.364 56.1666C119.192 60.8676 141.924 53.7666 149.97 41.6086C152.389 37.9536 152.77 36.3926 152.77 30.1406C152.77 23.7036 152.438 22.4376 149.77 18.6856C146.308 13.8176 134.025 5.93956 124.77 2.65056C116.787 -0.186443 100.089 -0.899444 92.2699 1.26256ZM119.739 15.3966C124.867 17.2066 134.109 22.3526 137.02 25.0186C140.218 27.9486 140.003 32.6556 136.52 35.9876C128.57 43.5926 113.778 46.2616 103.87 41.8786C95.1959 38.0416 93.9469 38.6096 82.6669 51.5126C68.7549 67.4256 58.2899 85.5386 51.7959 104.95C46.4009 121.073 44.9839 131.435 45.5339 150.732C46.3269 178.511 50.3489 191.084 62.1719 202.733C73.7469 214.138 87.5179 219.732 104.02 219.732C111.38 219.732 116.536 218.855 132.876 214.827C157.307 208.803 164.132 207.732 178.081 207.732C209.554 207.732 240.304 220.387 264.112 243.138C275.745 254.254 282.696 263.25 292.975 280.49C303.868 298.761 311.269 308.843 321.676 319.59C330.598 328.803 337.862 334.738 346.851 340.158L352.77 343.727L348.27 343.711C335.45 343.666 311.293 338.501 296.594 332.662C282.661 327.127 259.515 314.299 256.506 310.444C255.909 309.68 255.933 306.389 256.57 301.544C257.443 294.904 257.352 293.506 255.902 291.294C254.659 289.396 253.363 288.732 250.902 288.732C244.878 288.732 244.53 289.797 239.715 322.888C237.287 339.577 235.294 353.587 235.285 354.021C235.277 354.455 231.356 354.68 226.571 354.521L217.873 354.232L208.593 308.79C202.913 280.972 198.742 262.775 197.839 261.873C195.549 259.583 190.266 260.019 188.114 262.676C187.1 263.929 186.288 265.691 186.31 266.593C186.331 267.494 188.744 279.932 191.671 294.232C194.599 308.532 196.833 320.418 196.636 320.645C196.439 320.872 189.361 321.268 180.906 321.524C165.793 321.984 151.716 321.261 149.595 319.916C148.838 319.436 149.067 315.509 150.365 306.732C152.153 294.639 152.154 294.151 150.393 291.732C148.256 288.798 143.652 287.999 140.82 290.07C139.158 291.287 138.193 296.116 134.266 322.864L129.662 354.232H121.248H112.835L108.466 314.732C103.707 271.711 103.415 270.517 97.5129 269.925C95.3589 269.71 93.8339 270.284 92.3619 271.864C89.9429 274.461 89.9299 274.789 91.6949 288.732C92.4259 294.507 92.8749 299.399 92.6929 299.603C92.5099 299.807 89.7529 298.51 86.5659 296.719C74.7759 290.098 62.5319 280.964 52.4559 271.274C26.2889 246.109 15.5049 218.23 13.5849 170.78C11.5079 119.43 27.6939 74.0716 60.0459 40.5846C76.5859 23.4646 87.8839 15.6996 99.1409 13.7156C104.81 12.7156 114.346 13.4946 119.739 15.3966ZM108.202 20.8576C106.401 24.2226 108.478 27.7316 112.27 27.7316C116.062 27.7316 118.139 24.2226 116.338 20.8576C114.783 17.9536 109.757 17.9536 108.202 20.8576ZM87.8239 312.904L94.8769 316.559L96.6269 332.396C97.5889 341.106 98.6279 349.694 98.9339 351.482L99.4929 354.732H91.9269H84.3609L83.8239 351.482C83.1379 347.327 79.2699 312.202 79.2699 310.129C79.2699 309.269 79.6079 308.719 80.0199 308.907C80.4319 309.095 83.9439 310.893 87.8239 312.904Z" fill="white"/>
</svg>
